<?xml version="1.0" standalone="no"?>
<!DOCTYPE svg PUBLIC "-//W3C//DTD SVG 20010904//EN"
 "http://www.w3.org/TR/2001/REC-SVG-20010904/DTD/svg10.dtd">
<svg version="1.0" xmlns="http://www.w3.org/2000/svg"
 width="2000.000000pt" height="2000.000000pt" viewBox="0 0 2000.000000 2000.000000"
 preserveAspectRatio="xMidYMid meet">
<metadata>
Created by potrace 1.16, written by Peter Selinger 2001-2019
</metadata>
<g transform="translate(0.000000,2000.000000) scale(0.100000,-0.100000)"
fill="#000000" stroke="none">
<path d="M16557 15798 c17 -7 52 -27 77 -45 59 -42 70 -79 43 -148 -19 -50
-19 -50 3 -143 21 -86 23 -108 17 -270 -4 -109 -13 -200 -22 -237 -50 -192
-309 -546 -486 -664 -65 -43 -178 -93 -265 -116 -33 -9 -130 -20 -217 -25 -87
-6 -1043 -12 -2125 -15 -1082 -2 -2543 -10 -3247 -17 -1507 -15 -1657 -15
-2725 -1 -776 10 -819 12 -898 32 -123 31 -227 88 -324 178 -53 49 -86 64
-117 56 -53 -14 -87 49 -95 176 -2 48 1 82 20 191 19 115 22 155 13 160 -5 4
-7 14 -3 23 8 21 -12 22 -32 3 -21 -21 -90 -235 -113 -351 -62 -311 -50 -772
25 -975 90 -238 324 -399 669 -460 243 -42 196 -42 4735 -41 4210 1 4636 4
4833 31 435 60 684 222 942 610 159 239 208 353 248 572 19 110 22 156 22 438
0 335 -8 414 -56 561 -65 200 -205 341 -409 414 -98 35 -269 63 -422 70 -105
4 -118 3 -91 -7z"/>
<path d="M14184 11280 c35 -6 59 -19 85 -43 20 -19 47 -38 61 -42 32 -9 58
-33 76 -67 13 -24 12 -31 -7 -67 -20 -40 -21 -43 -5 -133 28 -158 36 -329 20
-425 -31 -191 -69 -276 -206 -453 -111 -143 -197 -213 -371 -299 -109 -54
-246 -79 -507 -91 -107 -5 -319 -15 -470 -22 -208 -9 -875 -12 -2755 -11
-1364 1 -2772 5 -3130 7 -357 3 -747 2 -866 -2 -205 -7 -218 -9 -251 -31 -56
-39 -74 -77 -118 -256 -37 -152 -98 -363 -165 -575 -43 -134 -93 -303 -114
-388 -12 -45 -37 -126 -56 -180 -38 -107 -101 -331 -140 -499 -38 -162 -143
-503 -366 -1192 -69 -212 -83 -266 -83 -323 -1 -57 2 -71 21 -90 21 -21 26
-21 68 -10 25 7 96 12 158 12 157 0 382 27 723 87 l100 18 42 150 c23 82 89
312 147 510 58 198 156 536 216 750 141 495 258 895 271 918 5 10 21 22 35 28
37 14 637 18 4013 24 3235 6 3167 4 3495 60 249 42 389 95 549 205 161 111
279 247 409 472 109 187 168 348 204 553 25 146 24 550 -1 690 -41 226 -91
331 -216 456 -71 71 -103 94 -181 133 -114 56 -241 89 -420 110 -163 18 -340
29 -265 16z"/>
<path d="M4811 10417 c-127 -317 -267 -754 -400 -1248 -49 -184 -126 -453
-170 -599 -84 -278 -199 -678 -300 -1040 -32 -118 -85 -296 -116 -395 -101
-318 -133 -430 -275 -950 -160 -591 -281 -1069 -304 -1205 -58 -345 -43 -805
34 -1030 56 -167 159 -289 302 -359 158 -78 330 -104 788 -122 395 -15 8466
-6 8700 10 500 34 767 105 1032 276 229 148 418 449 525 835 40 143 54 256 60
462 11 387 -43 632 -181 814 -111 147 -283 223 -588 258 -124 15 -272 21 -238
10 57 -19 104 -50 125 -85 30 -47 31 -55 5 -97 -26 -43 -25 -84 6 -189 45
-152 28 -288 -72 -592 -50 -152 -155 -344 -229 -416 -94 -93 -318 -178 -590
-224 l-170 -29 -795 -11 c-437 -6 -1011 -8 -1275 -6 -264 3 -1186 0 -2050 -5
-1637 -11 -3628 -13 -4329 -4 -457 6 -520 12 -614 66 -31 17 -80 56 -109 85
-28 30 -71 64 -95 77 -23 12 -53 37 -64 54 -43 62 -54 265 -23 411 5 25 16 91
25 146 8 55 28 138 44 185 16 47 32 112 36 145 3 32 13 77 20 98 17 48 18 93
3 136 -7 21 -8 36 -1 44 5 6 20 50 32 97 12 47 29 112 38 145 8 33 19 63 24
66 5 3 14 37 19 75 6 38 24 115 40 170 16 56 29 113 29 127 0 14 5 29 10 32 6
3 10 15 10 27 0 11 22 97 49 191 27 95 51 183 54 197 6 27 32 102 46 135 5 11
19 54 31 95 11 41 25 84 30 95 5 11 21 56 36 100 14 44 30 89 34 100 14 34 27
81 85 310 50 201 103 385 126 442 4 13 6 29 3 37 -3 8 8 56 25 107 17 50 31
97 31 105 0 7 27 96 61 196 58 173 84 261 95 318 5 24 27 105 44 163 5 15 6
44 3 64 -4 26 -2 38 9 44 11 6 31 70 58 186 23 98 45 185 49 193 5 8 14 40 21
70 7 30 21 73 32 96 10 22 18 51 18 64 0 22 24 81 72 175 11 22 39 95 63 162
32 91 39 125 31 132 -9 7 -16 1 -25 -22z"/>
</g>
</svg>
